# Blender v2.67 (sub 0) OBJ File: 'robot.blend'
# www.blender.org
v -0.122518 -1.206720 0.002868
v -0.114286 -1.158499 0.002868
v -0.114286 -1.206720 0.051778
v -0.114286 -1.254942 0.002868
v -0.114286 -1.206720 -0.046043
v -0.106538 -1.161841 -0.042653
v -0.106538 -1.161841 0.048389
v -0.106538 -1.251600 0.048389
v -0.106538 -1.251600 -0.042653
v 0.000000 -1.206720 0.125386
v 0.000000 -1.158499 0.117154
v 0.048910 -1.206720 0.117154
v 0.000000 -1.254942 0.117154
v -0.048910 -1.206720 0.117154
v -0.045521 -1.161841 0.109406
v 0.045521 -1.161841 0.109406
v 0.045521 -1.251600 0.109406
v -0.045521 -1.251600 0.109406
v 0.122518 -1.206720 0.002868
v 0.114286 -1.158499 0.002868
v 0.114286 -1.206720 -0.046043
v 0.114286 -1.254942 0.002868
v 0.114286 -1.206720 0.051778
v 0.106538 -1.161841 0.048389
v 0.106538 -1.161841 -0.042653
v 0.106538 -1.251600 -0.042653
v 0.106538 -1.251600 0.048389
v 0.000000 -1.206720 -0.119650
v 0.000000 -1.158499 -0.111418
v -0.048910 -1.206720 -0.111418
v 0.000000 -1.254942 -0.111418
v 0.048910 -1.206720 -0.111418
v 0.045521 -1.161841 -0.103670
v -0.045521 -1.161841 -0.103670
v -0.045521 -1.251600 -0.103670
v 0.045521 -1.251600 -0.103670
v 0.000000 -1.327513 0.002868
v -0.048910 -1.319396 0.002868
v 0.000000 -1.319396 0.051778
v 0.048910 -1.319396 0.002868
v 0.000000 -1.319396 -0.046043
v -0.045521 -1.311757 -0.042653
v -0.045521 -1.311757 0.048389
v 0.045521 -1.311757 0.048389
v 0.045521 -1.311757 -0.042653
v 0.000000 -1.085927 0.002868
v 0.048910 -1.094044 0.002868
v 0.000000 -1.094044 0.051778
v -0.048910 -1.094044 0.002868
v 0.000000 -1.094044 -0.046043
v 0.045521 -1.101683 -0.042653
v 0.045521 -1.101683 0.048389
v -0.045521 -1.101683 0.048389
v -0.045521 -1.101683 -0.042653
v -0.083535 -1.124362 -0.039263
v -0.089709 -1.118274 0.002868
v -0.083535 -1.124362 0.044999
v -0.083535 -1.165183 0.086403
v -0.089709 -1.206720 0.092577
v -0.083535 -1.248258 0.086403
v -0.083535 -1.289079 0.044999
v -0.089709 -1.295166 0.002868
v -0.083535 -1.289079 -0.039263
v -0.083535 -1.248258 -0.080667
v -0.089709 -1.206720 -0.086842
v -0.083535 -1.165183 -0.080667
v -0.042131 -1.124362 0.086403
v 0.000000 -1.118274 0.092577
v 0.042131 -1.124362 0.086403
v 0.083535 -1.165183 0.086403
v 0.089709 -1.206720 0.092577
v 0.083535 -1.248258 0.086403
v 0.042131 -1.289079 0.086403
v 0.000000 -1.295166 0.092577
v -0.042131 -1.289079 0.086403
v 0.083535 -1.124362 0.044999
v 0.089709 -1.118274 0.002868
v 0.083535 -1.124362 -0.039263
v 0.083535 -1.165183 -0.080667
v 0.089709 -1.206720 -0.086842
v 0.083535 -1.248258 -0.080667
v 0.083535 -1.289079 -0.039263
v 0.089709 -1.295166 0.002868
v 0.083535 -1.289079 0.044999
v 0.042131 -1.124362 -0.080667
v 0.000000 -1.118274 -0.086842
v -0.042131 -1.124362 -0.080667
v -0.042131 -1.289079 -0.080667
v 0.000000 -1.295166 -0.086842
v 0.042131 -1.289079 -0.080667
v -0.071025 -1.276745 -0.068157
v -0.071025 -1.276745 0.073893
v 0.071025 -1.276745 0.073893
v 0.071025 -1.276745 -0.068157
v -0.071025 -1.136695 -0.068157
v -0.071025 -1.136695 0.073893
v 0.071025 -1.136695 0.073893
v 0.071025 -1.136695 -0.068157
vt 0.824510 0.528047
vt 0.910412 0.555317
vt 0.799576 0.614656
vt 0.986045 0.585490
vt 0.881400 0.634308
vt 0.782753 0.694328
vt 0.953750 0.656703
vt 0.859923 0.706935
vt 0.853141 0.448343
vt 0.881000 0.389284
vt 0.931253 0.479522
vt 0.333169 0.073841
vt 0.287005 0.106809
vt 0.273510 0.019069
vt 0.742305 0.507683
vt 0.554935 0.392326
vt 0.550598 0.451216
vt 0.471709 0.381855
vt 0.774796 0.435189
vt 0.473436 0.438557
vt 0.393011 0.400977
vt 0.724943 0.589976
vt 0.677708 0.498122
vt 0.715117 0.665904
vt 0.666635 0.575347
vt 0.157939 0.235639
vt 0.132888 0.149064
vt 0.243804 0.208254
vt 0.115957 0.069415
vt 0.214685 0.129301
vt 0.319395 0.177978
vt 0.193110 0.056703
vt 0.075761 0.256114
vt 0.058289 0.173845
vt 0.011177 0.265762
vt 0.000000 0.188551
vt 0.048360 0.097929
vt 0.008404 0.128077
vt 0.186677 0.315304
vt 0.108350 0.328564
vt 0.214616 0.374326
vt 0.140228 0.381855
vt 0.778496 0.010488
vt 0.861729 0.000074
vt 0.859964 0.056775
vt 0.940415 0.019249
vt 0.919279 0.058728
vt 0.264747 0.284020
vt 0.333388 0.455789
vt 0.379575 0.488727
vt 0.824552 0.235663
vt 0.742346 0.256028
vt 0.724985 0.173734
vt 0.677750 0.265588
vt 0.666676 0.188363
vt 0.799617 0.149054
vt 0.715158 0.097806
vt 0.675162 0.127899
vt 0.853183 0.315367
vt 0.774838 0.328521
vt 0.881041 0.374426
vt 0.806644 0.381855
vt 0.111742 0.392326
vt 0.194967 0.381855
vt 0.193241 0.438557
vt 0.273666 0.400978
vt 0.252557 0.440470
vt 0.910454 0.208393
vt 0.931294 0.284188
vt 0.986086 0.178220
vt 0.999932 0.250267
vt 0.951450 0.340824
vt 0.333507 0.073841
vt 0.393166 0.019069
vt 0.414249 0.058576
vt 0.881441 0.129402
vt 0.782794 0.069382
vt 0.953791 0.107007
vt 0.508738 0.235639
vt 0.479999 0.315304
vt 0.401930 0.284020
vt 0.452061 0.374326
vt 0.381698 0.340629
vt 0.422872 0.208254
vt 0.333338 0.250007
vt 0.333288 0.455789
vt 0.287101 0.488727
vt 0.590916 0.256114
vt 0.778455 0.753222
vt 0.861687 0.763636
vt 0.558326 0.328564
vt 0.940373 0.744461
vt 0.533789 0.149064
vt 0.550719 0.069415
vt 0.608388 0.173845
vt 0.655499 0.265762
vt 0.618316 0.097929
vt 0.666676 0.188551
vt 0.451991 0.129301
vt 0.347281 0.177978
vt 0.379672 0.106809
vt 0.473566 0.056703
vt 0.508728 0.617469
vt 0.533721 0.530877
vt 0.590920 0.637889
vt 0.608337 0.555608
vt 0.655510 0.647494
vt 0.618214 0.479686
vt 0.666635 0.570275
vt 0.422844 0.590142
vt 0.347232 0.559917
vt 0.451910 0.511170
vt 0.480043 0.697154
vt 0.401952 0.665922
vt 0.452145 0.756194
vt 0.381759 0.722545
vt 0.333338 0.631955
vt 1.000000 0.074101
vt 0.558380 0.710361
vt 0.555096 0.010527
vt 0.526537 0.763673
vt 0.471878 0.000000
vt 0.157949 0.617469
vt 0.132956 0.530877
vt 0.214767 0.511170
vt 0.116079 0.451217
vt 0.243832 0.590142
vt 0.075757 0.637889
vt 0.058340 0.555608
vt 0.011167 0.647494
vt 0.000042 0.570275
vt 0.048463 0.479686
vt 0.008486 0.509806
vt 0.186633 0.697154
vt 0.214532 0.756194
vt 0.108297 0.710361
vt 0.111580 0.010527
vt 0.194798 0.000000
vt 0.319444 0.559917
vt 0.264724 0.665922
vt 0.999959 0.689609
vt 0.919237 0.704983
vt 0.951408 0.422886
vt 0.999890 0.513443
vt 0.252428 0.058576
vt 0.806603 0.381855
vt 0.414120 0.440470
vt 0.675121 0.635811
vt 0.284978 0.340629
vt 0.526448 0.381855
vt 0.658272 0.128077
vt 0.658190 0.509806
vt 0.140139 0.763673
vt 0.284917 0.722545
vn -0.972444 0.166017 -0.163679
vn -0.839315 0.512802 -0.180511
vn -0.842021 0.183680 -0.507211
vn -0.726358 0.489440 -0.482548
vn -0.972444 0.166017 0.163679
vn -0.842021 0.183680 0.507211
vn -0.839315 0.512802 0.180511
vn -0.726358 0.489440 0.482548
vn -0.972444 -0.166017 0.163679
vn -0.839314 -0.512803 0.180511
vn -0.842021 -0.183680 0.507211
vn -0.726358 -0.489440 0.482548
vn -0.972444 -0.166017 -0.163679
vn -0.842021 -0.183680 -0.507211
vn -0.839314 -0.512803 -0.180511
vn -0.726358 -0.489440 -0.482548
vn -0.163679 0.166017 0.972444
vn -0.180511 0.512803 0.839314
vn -0.507211 0.183680 0.842021
vn -0.482548 0.489440 0.726358
vn 0.163277 0.179807 0.970057
vn 0.505574 0.199911 0.839303
vn 0.180088 0.526310 0.831003
vn 0.475132 0.520276 0.709621
vn 0.177286 -0.165620 0.970123
vn 0.196483 -0.511205 0.836698
vn 0.520675 -0.183286 0.833849
vn 0.513226 -0.482178 0.710003
vn -0.163679 -0.166017 0.972444
vn -0.507211 -0.183680 0.842021
vn -0.180511 -0.512803 0.839314
vn -0.482548 -0.489440 0.726358
vn 0.970123 0.165621 0.177287
vn 0.836698 0.511205 0.196482
vn 0.833849 0.183286 0.520674
vn 0.710003 0.482177 0.513226
vn 0.970057 0.179807 -0.163277
vn 0.839303 0.199911 -0.505574
vn 0.831004 0.526309 -0.180088
vn 0.709621 0.520276 -0.475132
vn 0.970123 -0.165621 -0.177287
vn 0.836699 -0.511204 -0.196483
vn 0.833849 -0.183286 -0.520674
vn 0.710003 -0.482177 -0.513226
vn 0.970057 -0.179807 0.163277
vn 0.839303 -0.199911 0.505574
vn 0.831004 -0.526309 0.180088
vn 0.709621 -0.520276 0.475132
vn 0.177286 0.165620 -0.970123
vn 0.196483 0.511205 -0.836698
vn 0.520675 0.183286 -0.833849
vn 0.513226 0.482178 -0.710003
vn -0.163678 0.166017 -0.972444
vn -0.507211 0.183680 -0.842021
vn -0.180511 0.512803 -0.839314
vn -0.482548 0.489441 -0.726358
vn -0.163678 -0.166017 -0.972444
vn -0.180511 -0.512803 -0.839314
vn -0.507211 -0.183680 -0.842021
vn -0.482548 -0.489441 -0.726358
vn 0.163277 -0.179807 -0.970057
vn 0.505574 -0.199911 -0.839303
vn 0.180088 -0.526310 -0.831003
vn 0.475132 -0.520276 -0.709621
vn -0.161557 -0.973550 -0.161556
vn -0.502349 -0.845859 -0.179357
vn -0.179357 -0.845859 -0.502349
vn -0.480514 -0.733629 -0.480514
vn -0.161557 -0.973550 0.161556
vn -0.179357 -0.845859 0.502349
vn -0.502349 -0.845859 0.179357
vn -0.480514 -0.733630 0.480514
vn 0.161181 -0.971286 0.174999
vn 0.500801 -0.843257 0.195235
vn 0.179006 -0.837811 0.515780
vn 0.473496 -0.717281 0.511184
vn 0.174999 -0.971286 -0.161181
vn 0.195233 -0.843256 -0.500803
vn 0.515780 -0.837811 -0.179006
vn 0.511184 -0.717281 -0.473496
vn 0.161181 0.971286 -0.174999
vn 0.500803 0.843256 -0.195232
vn 0.179006 0.837811 -0.515780
vn 0.473496 0.717281 -0.511184
vn 0.174999 0.971286 0.161181
vn 0.195233 0.843256 0.500803
vn 0.515780 0.837811 0.179006
vn 0.511185 0.717281 0.473496
vn -0.161557 0.973550 0.161556
vn -0.502347 0.845860 0.179357
vn -0.179357 0.845859 0.502349
vn -0.480514 0.733630 0.480514
vn -0.161557 0.973550 -0.161556
vn -0.179357 0.845859 -0.502349
vn -0.502347 0.845860 -0.179357
vn -0.480514 0.733630 -0.480514
vn -0.967362 0.180446 -0.177905
vn -0.827489 0.525702 -0.197228
vn -0.830237 0.200710 -0.520020
vn -0.676856 0.524190 -0.516808
vn -0.967362 0.180446 0.177905
vn -0.830237 0.200710 0.520020
vn -0.827489 0.525702 0.197228
vn -0.676856 0.524190 0.516808
vn -0.967362 -0.180446 0.177905
vn -0.827490 -0.525702 0.197227
vn -0.830237 -0.200710 0.520020
vn -0.676856 -0.524190 0.516808
vn -0.967362 -0.180446 -0.177905
vn -0.830237 -0.200710 -0.520020
vn -0.827490 -0.525702 -0.197227
vn -0.676856 -0.524190 -0.516808
vn -0.177905 0.180446 0.967362
vn -0.197228 0.525703 0.827489
vn -0.520021 0.200711 0.830237
vn -0.516808 0.524190 0.676856
vn 0.177286 0.165620 0.970123
vn 0.520675 0.183286 0.833849
vn 0.196483 0.511205 0.836698
vn 0.513226 0.482178 0.710003
vn 0.163277 -0.179807 0.970057
vn 0.180088 -0.526310 0.831003
vn 0.505574 -0.199911 0.839303
vn 0.475132 -0.520276 0.709621
vn -0.177905 -0.180446 0.967362
vn -0.520021 -0.200711 0.830237
vn -0.197228 -0.525703 0.827489
vn -0.516808 -0.524190 0.676856
vn 0.970057 0.179807 0.163277
vn 0.831004 0.526309 0.180088
vn 0.839303 0.199911 0.505574
vn 0.709621 0.520276 0.475132
vn 0.970123 0.165621 -0.177287
vn 0.833849 0.183286 -0.520674
vn 0.836698 0.511205 -0.196482
vn 0.710003 0.482177 -0.513226
vn 0.970057 -0.179807 -0.163277
vn 0.831004 -0.526309 -0.180088
vn 0.839303 -0.199911 -0.505574
vn 0.709621 -0.520276 -0.475132
vn 0.970123 -0.165621 0.177287
vn 0.833849 -0.183286 0.520674
vn 0.836699 -0.511204 0.196483
vn 0.710003 -0.482177 0.513226
vn 0.163277 0.179807 -0.970057
vn 0.180088 0.526310 -0.831003
vn 0.505574 0.199911 -0.839303
vn 0.475132 0.520276 -0.709621
vn -0.177905 0.180446 -0.967362
vn -0.520021 0.200711 -0.830237
vn -0.197228 0.525703 -0.827489
vn -0.516808 0.524190 -0.676857
vn -0.177905 -0.180446 -0.967362
vn -0.197228 -0.525703 -0.827489
vn -0.520021 -0.200711 -0.830237
vn -0.516808 -0.524190 -0.676857
vn 0.177286 -0.165620 -0.970123
vn 0.520675 -0.183286 -0.833849
vn 0.196483 -0.511205 -0.836698
vn 0.513226 -0.482178 -0.710003
vn -0.175635 -0.968661 -0.175635
vn -0.515223 -0.834330 -0.196056
vn -0.196057 -0.834330 -0.515224
vn -0.515393 -0.684645 -0.515393
vn -0.175635 -0.968661 0.175635
vn -0.196057 -0.834330 0.515224
vn -0.515223 -0.834330 0.196056
vn -0.515393 -0.684645 0.515393
vn 0.174999 -0.971286 0.161181
vn 0.515780 -0.837812 0.179006
vn 0.195233 -0.843256 0.500803
vn 0.511185 -0.717281 0.473496
vn 0.161181 -0.971286 -0.174999
vn 0.179006 -0.837811 -0.515780
vn 0.500801 -0.843257 -0.195235
vn 0.473496 -0.717281 -0.511184
vn 0.174999 0.971286 -0.161181
vn 0.515780 0.837812 -0.179006
vn 0.195233 0.843256 -0.500803
vn 0.511184 0.717281 -0.473496
vn 0.161181 0.971286 0.174999
vn 0.179006 0.837811 0.515780
vn 0.500803 0.843256 0.195232
vn 0.473496 0.717281 0.511184
vn -0.175635 0.968661 0.175635
vn -0.515223 0.834330 0.196058
vn -0.196057 0.834330 0.515224
vn -0.515393 0.684645 0.515393
vn -0.175635 0.968661 -0.175635
vn -0.196057 0.834330 -0.515224
vn -0.515223 0.834330 -0.196058
vn -0.515393 0.684645 -0.515393
s off
f 1/1/1 2/2/1 5/3/1
f 2/2/2 56/4/2 6/5/2
f 5/3/3 6/5/3 65/6/3
f 6/5/4 55/7/4 66/8/4
f 1/1/5 3/9/5 2/2/5
f 3/9/6 59/10/6 7/11/6
f 2/2/7 7/11/7 56/4/7
f 7/12/8 58/13/8 57/14/8
f 1/1/9 4/15/9 3/9/9
f 4/16/10 62/17/10 8/18/10
f 3/9/11 8/19/11 59/10/11
f 8/18/12 61/20/12 60/21/12
f 1/1/13 5/3/13 4/15/13
f 5/3/14 65/6/14 9/22/14
f 4/15/15 9/22/15 62/23/15
f 9/22/16 64/24/16 63/25/16
f 10/26/17 11/27/17 14/28/17
f 11/27/18 68/29/18 15/30/18
f 14/28/19 15/30/19 59/31/19
f 15/30/20 67/32/20 58/13/20
f 10/26/21 12/33/21 16/34/21
f 12/33/22 71/35/22 70/36/22
f 11/27/23 16/34/23 69/37/23
f 16/34/24 70/36/24 97/38/24
f 10/26/25 13/39/25 17/40/25
f 13/39/26 74/41/26 73/42/26
f 12/43/27 17/44/27 72/45/27
f 17/44/28 73/46/28 93/47/28
f 10/26/29 14/28/29 13/39/29
f 14/28/30 59/31/30 18/48/30
f 13/39/31 18/48/31 74/41/31
f 18/49/32 60/21/32 75/50/32
f 19/51/33 20/52/33 24/53/33
f 20/52/34 77/54/34 76/55/34
f 23/56/35 24/53/35 70/57/35
f 24/53/36 76/55/36 97/58/36
f 19/51/37 21/59/37 25/60/37
f 21/59/38 80/61/38 79/62/38
f 20/63/39 25/64/39 78/65/39
f 25/64/40 79/66/40 98/67/40
f 19/51/41 22/68/41 26/69/41
f 22/68/42 83/70/42 82/71/42
f 21/59/43 26/69/43 81/72/43
f 26/73/44 82/74/44 94/75/44
f 19/51/45 23/56/45 27/76/45
f 23/56/46 71/77/46 72/45/46
f 22/68/47 27/76/47 84/78/47
f 27/76/48 72/45/48 93/47/48
f 28/79/49 29/80/49 33/81/49
f 29/80/50 86/82/50 85/83/50
f 32/84/51 33/81/51 79/85/51
f 33/86/52 85/87/52 98/67/52
f 28/79/53 30/88/53 29/80/53
f 30/89/54 65/6/54 34/90/54
f 29/80/55 34/91/55 86/82/55
f 34/90/56 66/8/56 87/92/56
f 28/79/57 31/93/57 30/88/57
f 31/93/58 89/94/58 35/95/58
f 30/88/59 35/95/59 65/96/59
f 35/95/60 88/97/60 64/98/60
f 28/79/61 32/84/61 36/99/61
f 32/84/62 80/100/62 81/101/62
f 31/93/63 36/99/63 90/102/63
f 36/99/64 81/101/64 94/75/64
f 37/103/65 38/104/65 41/105/65
f 38/104/66 62/17/66 42/106/66
f 41/105/67 42/106/67 89/107/67
f 42/106/68 63/108/68 88/109/68
f 37/103/69 39/110/69 38/104/69
f 39/110/70 74/111/70 43/112/70
f 38/104/71 43/112/71 62/17/71
f 43/112/72 75/50/72 61/20/72
f 37/103/73 40/113/73 44/114/73
f 40/113/74 83/115/74 84/116/74
f 39/110/75 44/114/75 73/117/75
f 44/118/76 84/78/76 93/47/76
f 37/103/77 41/105/77 45/119/77
f 41/120/78 89/94/78 90/102/78
f 40/113/79 45/119/79 82/121/79
f 45/122/80 90/102/80 94/75/80
f 46/123/81 47/124/81 51/125/81
f 47/124/82 77/126/82 78/65/82
f 50/127/83 51/125/83 85/87/83
f 51/125/84 78/65/84 98/67/84
f 46/123/85 48/128/85 52/129/85
f 48/128/86 68/130/86 69/131/86
f 47/124/87 52/129/87 76/132/87
f 52/129/88 69/131/88 97/133/88
f 46/123/89 49/134/89 48/128/89
f 49/134/90 56/135/90 53/136/90
f 48/137/91 53/138/91 68/29/91
f 53/138/92 57/14/92 67/32/92
f 46/123/93 50/127/93 49/134/93
f 50/127/94 86/139/94 54/140/94
f 49/134/95 54/140/95 56/135/95
f 54/141/96 87/92/96 55/7/96
f 2/2/97 6/5/97 5/3/97
f 56/4/98 55/7/98 6/5/98
f 6/5/99 66/8/99 65/6/99
f 55/7/100 95/142/100 66/8/100
f 3/9/101 7/11/101 2/2/101
f 59/10/102 58/143/102 7/11/102
f 7/11/103 57/144/103 56/4/103
f 58/13/104 96/145/104 57/14/104
f 4/15/105 8/19/105 3/9/105
f 62/17/106 61/20/106 8/18/106
f 8/19/107 60/146/107 59/10/107
f 61/20/108 92/147/108 60/21/108
f 5/3/109 9/22/109 4/15/109
f 65/6/110 64/24/110 9/22/110
f 9/22/111 63/25/111 62/23/111
f 64/24/112 91/148/112 63/25/112
f 11/27/113 15/30/113 14/28/113
f 68/29/114 67/32/114 15/30/114
f 15/30/115 58/13/115 59/31/115
f 67/32/116 96/145/116 58/13/116
f 11/27/117 10/26/117 16/34/117
f 16/34/118 12/33/118 70/36/118
f 68/29/119 11/27/119 69/37/119
f 69/37/120 16/34/120 97/38/120
f 12/33/121 10/26/121 17/40/121
f 17/40/122 13/39/122 73/42/122
f 71/77/123 12/43/123 72/45/123
f 72/45/124 17/44/124 93/47/124
f 14/28/125 18/48/125 13/39/125
f 59/31/126 60/85/126 18/48/126
f 18/48/127 75/149/127 74/41/127
f 60/21/128 92/147/128 75/50/128
f 23/56/129 19/51/129 24/53/129
f 24/53/130 20/52/130 76/55/130
f 71/77/131 23/56/131 70/57/131
f 70/57/132 24/53/132 97/58/132
f 20/52/133 19/51/133 25/60/133
f 25/60/134 21/59/134 79/62/134
f 77/126/135 20/63/135 78/65/135
f 78/65/136 25/64/136 98/67/136
f 21/59/137 19/51/137 26/69/137
f 26/69/138 22/68/138 82/71/138
f 80/61/139 21/59/139 81/72/139
f 81/101/140 26/73/140 94/75/140
f 22/68/141 19/51/141 27/76/141
f 27/76/142 23/56/142 72/45/142
f 83/70/143 22/68/143 84/78/143
f 84/78/144 27/76/144 93/47/144
f 32/84/145 28/79/145 33/81/145
f 33/81/146 29/80/146 85/83/146
f 80/100/147 32/84/147 79/85/147
f 79/66/148 33/86/148 98/67/148
f 30/88/149 34/91/149 29/80/149
f 65/6/150 66/8/150 34/90/150
f 34/91/151 87/150/151 86/82/151
f 66/8/152 95/142/152 87/92/152
f 31/93/153 35/95/153 30/88/153
f 89/94/154 88/97/154 35/95/154
f 35/95/155 64/98/155 65/96/155
f 88/97/156 91/151/156 64/98/156
f 31/93/157 28/79/157 36/99/157
f 36/99/158 32/84/158 81/101/158
f 89/94/159 31/93/159 90/102/159
f 90/102/160 36/99/160 94/75/160
f 38/104/161 42/106/161 41/105/161
f 62/17/162 63/108/162 42/106/162
f 42/106/163 88/109/163 89/107/163
f 63/108/164 91/152/164 88/109/164
f 39/110/165 43/112/165 38/104/165
f 74/111/166 75/50/166 43/112/166
f 43/112/167 61/20/167 62/17/167
f 75/50/168 92/147/168 61/20/168
f 39/110/169 37/103/169 44/114/169
f 44/114/170 40/113/170 84/116/170
f 74/111/171 39/110/171 73/117/171
f 73/46/172 44/118/172 93/47/172
f 40/113/173 37/103/173 45/119/173
f 45/122/174 41/120/174 90/102/174
f 83/115/175 40/113/175 82/121/175
f 82/74/176 45/122/176 94/75/176
f 50/127/177 46/123/177 51/125/177
f 51/125/178 47/124/178 78/65/178
f 86/139/179 50/127/179 85/87/179
f 85/87/180 51/125/180 98/67/180
f 47/124/181 46/123/181 52/129/181
f 52/129/182 48/128/182 69/131/182
f 77/126/183 47/124/183 76/132/183
f 76/132/184 52/129/184 97/133/184
f 49/134/185 53/136/185 48/128/185
f 56/135/186 57/153/186 53/136/186
f 53/138/187 67/32/187 68/29/187
f 57/14/188 96/145/188 67/32/188
f 50/127/189 54/140/189 49/134/189
f 86/139/190 87/117/190 54/140/190
f 54/140/191 55/154/191 56/135/191
f 87/92/192 95/142/192 55/7/192
