# Blender v2.67 (sub 0) OBJ File: 'robot.blend'
# www.blender.org
v 0.538272 0.319022 -0.347656
v 0.557155 0.333448 -0.333937
v 0.531059 0.333448 -0.325457
v 0.514931 0.333448 -0.347656
v 0.531059 0.333448 -0.369855
v 0.557155 0.333448 -0.361375
v 0.545484 0.356789 -0.325457
v 0.519388 0.356789 -0.333937
v 0.519388 0.356789 -0.361375
v 0.545484 0.356789 -0.369855
v 0.561613 0.356789 -0.347656
v 0.538272 0.371215 -0.347656
v 0.549371 0.322920 -0.339592
v 0.545132 0.331399 -0.326544
v 0.534032 0.322920 -0.334608
v 0.549371 0.322920 -0.355720
v 0.560470 0.331399 -0.347656
v 0.520313 0.331399 -0.334608
v 0.524552 0.322920 -0.347656
v 0.520313 0.331399 -0.360704
v 0.534032 0.322920 -0.360704
v 0.545132 0.331399 -0.368768
v 0.563091 0.345119 -0.355720
v 0.563091 0.345119 -0.339592
v 0.553611 0.345119 -0.326544
v 0.538272 0.345119 -0.321560
v 0.522933 0.345119 -0.326544
v 0.513453 0.345119 -0.339592
v 0.513453 0.345119 -0.355720
v 0.522933 0.345119 -0.368768
v 0.538272 0.345119 -0.373752
v 0.553611 0.345119 -0.368768
v 0.556231 0.358838 -0.334608
v 0.531412 0.358838 -0.326544
v 0.516073 0.358838 -0.347656
v 0.531412 0.358838 -0.368768
v 0.556231 0.358838 -0.360704
v 0.551991 0.367317 -0.347656
v 0.542511 0.367317 -0.334608
v 0.527172 0.367317 -0.339592
v 0.527172 0.367317 -0.355720
v 0.542511 0.367317 -0.360704
vt 0.584083 0.499684
vt 0.454513 0.490003
vt 0.539254 0.387281
vt 0.335468 0.499751
vt 0.383232 0.617571
vt 0.666479 0.451323
vt 0.660365 0.593626
vt 0.529364 0.617530
vt 0.443617 0.067880
vt 0.542553 0.000000
vt 0.558982 0.119616
vt 0.919391 0.166039
vt 1.000000 0.114757
vt 0.998990 0.257190
vt 0.670936 0.175014
vt 0.789555 0.161007
vt 0.722889 0.291049
vt 0.108407 0.067820
vt 0.223665 0.119790
vt 0.095527 0.193597
vt 0.801514 0.387281
vt 0.927866 0.387329
vt 0.864471 0.488787
vt 0.430995 0.193684
vt 0.868928 0.285774
vt 0.326150 0.193832
vt 0.335223 0.313474
vt 0.223514 0.267665
vt 0.000151 0.119563
vt 0.718432 0.483513
vt 0.443875 0.319461
vt 0.559134 0.267490
vt 0.542951 0.387139
vt 0.208124 0.716715
vt 0.081852 0.721194
vt 0.141573 0.617530
vt 0.287705 0.617571
vt 0.216423 0.490003
vt 0.914933 0.608522
vt 0.995542 0.659804
vt 0.866105 0.719248
vt 0.666479 0.599547
vt 0.785098 0.613555
vt 0.720068 0.713972
vt 0.870563 0.055314
vt 0.393122 0.387320
vt 0.462812 0.716715
vt 0.724525 0.060589
vt 0.207483 0.000142
vt 0.335468 0.074210
vt 0.589084 0.721194
vt 0.069344 0.000000
vt 0.670691 0.073807
vt 0.661618 0.193448
vt 0.352636 0.721258
vt 0.335619 0.267718
vt 0.335468 0.119843
vt 0.805972 0.387281
vt 0.108149 0.319400
vt 0.994533 0.517371
vt 0.932324 0.387233
vt 0.404812 0.387281
vt 0.207085 0.387281
vt 0.318300 0.721258
vt 0.000000 0.267438
vt 0.010571 0.593626
vt 0.004458 0.451323
vt 0.086853 0.499684
vt 0.670936 0.313071
vt 0.131682 0.387281
vt 0.277815 0.387320
vn 0.102381 -0.943524 0.315089
vn 0.700224 -0.661699 0.268031
vn -0.268033 -0.943523 0.194737
vn -0.268033 -0.943523 -0.194737
vn 0.102381 -0.943524 -0.315089
vn 0.904989 -0.330386 0.268031
vn 0.024747 -0.330385 0.943522
vn -0.889698 -0.330385 0.315092
vn -0.574601 -0.330387 -0.748784
vn 0.534575 -0.330387 -0.777865
vn 0.802609 -0.125628 0.583126
vn -0.306569 -0.125628 0.943522
vn -0.992077 -0.125631 0.000000
vn -0.306569 -0.125628 -0.943522
vn 0.802609 -0.125628 -0.583126
vn 0.408946 0.661698 0.628426
vn -0.471299 0.661699 0.583122
vn -0.700224 0.661699 -0.268031
vn 0.038531 0.661699 -0.748779
vn 0.724042 0.661696 -0.194735
vn -0.038531 -0.661699 0.748779
vn 0.187595 -0.794658 0.577345
vn 0.471299 -0.661699 0.583122
vn 0.700224 -0.661699 -0.268031
vn 0.607061 -0.794655 0.000000
vn 0.331304 -0.943524 0.000000
vn -0.724042 -0.661696 0.194735
vn -0.491119 -0.794658 0.356821
vn -0.408946 -0.661698 0.628426
vn -0.408946 -0.661698 -0.628426
vn -0.491119 -0.794658 -0.356821
vn -0.724042 -0.661696 -0.194735
vn 0.471299 -0.661699 -0.583122
vn 0.187595 -0.794658 -0.577345
vn -0.038531 -0.661699 -0.748779
vn 0.992077 0.125631 -0.000000
vn 0.982245 -0.187600 0.000000
vn 0.904989 -0.330386 -0.268031
vn 0.306569 0.125628 0.943522
vn 0.303531 -0.187597 0.934171
vn 0.534575 -0.330387 0.777865
vn -0.802609 0.125628 0.583126
vn -0.794656 -0.187594 0.577348
vn -0.574601 -0.330387 0.748784
vn -0.802609 0.125628 -0.583126
vn -0.794656 -0.187594 -0.577348
vn -0.889698 -0.330385 -0.315092
vn 0.306569 0.125628 -0.943522
vn 0.303531 -0.187597 -0.934171
vn 0.024747 -0.330385 -0.943522
vn 0.574601 0.330387 0.748784
vn 0.794656 0.187594 0.577348
vn 0.889698 0.330385 0.315092
vn -0.534575 0.330387 0.777865
vn -0.303531 0.187597 0.934171
vn -0.024747 0.330385 0.943522
vn -0.904989 0.330386 -0.268031
vn -0.982245 0.187600 0.000000
vn -0.904989 0.330386 0.268031
vn -0.024747 0.330385 -0.943522
vn -0.303531 0.187597 -0.934171
vn -0.534575 0.330387 -0.777865
vn 0.889698 0.330385 -0.315092
vn 0.794656 0.187594 -0.577348
vn 0.574601 0.330387 -0.748784
vn 0.268033 0.943523 0.194737
vn 0.491119 0.794658 0.356821
vn 0.724042 0.661696 0.194735
vn -0.102381 0.943524 0.315089
vn -0.187595 0.794658 0.577345
vn 0.038531 0.661699 0.748779
vn -0.331304 0.943524 0.000000
vn -0.607061 0.794655 0.000000
vn -0.700224 0.661699 0.268031
vn -0.102381 0.943524 -0.315089
vn -0.187595 0.794658 -0.577345
vn -0.471299 0.661699 -0.583122
vn 0.268033 0.943523 -0.194737
vn 0.491119 0.794658 -0.356821
vn 0.408946 0.661698 -0.628426
s off
f 1/1/1 13/2/1 15/3/1
f 2/4/2 13/2/2 17/5/2
f 1/1/3 15/3/3 19/6/3
f 1/1/4 19/6/4 21/7/4
f 1/1/5 21/7/5 16/8/5
f 2/9/6 17/10/6 24/11/6
f 3/12/7 14/13/7 26/14/7
f 4/15/8 18/16/8 28/17/8
f 5/18/9 20/19/9 30/20/9
f 6/21/10 22/22/10 32/23/10
f 2/9/11 24/11/11 25/24/11
f 3/12/12 26/14/12 27/25/12
f 4/26/13 28/27/13 29/28/13
f 5/18/14 30/20/14 31/29/14
f 6/21/15 32/23/15 23/30/15
f 7/31/16 33/32/16 39/33/16
f 8/34/17 34/35/17 40/36/17
f 9/4/18 35/37/18 41/38/18
f 10/39/19 36/40/19 42/41/19
f 11/42/20 37/43/20 38/44/20
f 15/45/21 14/13/21 3/12/21
f 15/3/22 13/2/22 14/46/22
f 13/2/23 2/4/23 14/46/23
f 17/5/24 16/8/24 6/47/24
f 17/5/25 13/2/25 16/8/25
f 13/2/26 1/1/26 16/8/26
f 19/48/27 18/16/27 4/15/27
f 19/48/28 15/45/28 18/16/28
f 15/45/29 3/12/29 18/16/29
f 21/49/30 20/19/30 5/18/30
f 21/49/31 19/50/31 20/19/31
f 19/50/32 4/26/32 20/19/32
f 16/8/33 22/51/33 6/47/33
f 16/8/34 21/7/34 22/51/34
f 21/49/35 5/18/35 22/52/35
f 24/11/36 23/53/36 11/54/36
f 24/11/37 17/10/37 23/53/37
f 17/5/38 6/47/38 23/55/38
f 26/56/39 25/24/39 7/31/39
f 26/56/40 14/57/40 25/24/40
f 14/57/41 2/9/41 25/24/41
f 28/17/42 27/25/42 8/58/42
f 28/17/43 18/16/43 27/25/43
f 18/16/44 3/12/44 27/25/44
f 30/20/45 29/28/45 9/59/45
f 30/20/46 20/19/46 29/28/46
f 20/19/47 4/26/47 29/28/47
f 32/23/48 31/60/48 10/39/48
f 32/23/49 22/22/49 31/60/49
f 22/52/50 5/18/50 31/29/50
f 25/24/51 33/32/51 7/31/51
f 25/24/52 24/11/52 33/32/52
f 24/11/53 11/54/53 33/32/53
f 27/25/54 34/61/54 8/58/54
f 27/25/55 26/14/55 34/61/55
f 26/56/56 7/31/56 34/62/56
f 29/28/57 35/63/57 9/59/57
f 29/28/58 28/27/58 35/63/58
f 28/64/59 8/34/59 35/37/59
f 31/60/60 36/40/60 10/39/60
f 31/29/61 30/20/61 36/65/61
f 30/20/62 9/59/62 36/65/62
f 23/30/63 37/43/63 11/42/63
f 23/30/64 32/23/64 37/43/64
f 32/23/65 10/39/65 37/43/65
f 39/66/66 38/67/66 12/68/66
f 39/33/67 33/32/67 38/69/67
f 33/32/68 11/54/68 38/69/68
f 40/36/69 39/66/69 12/68/69
f 40/36/70 34/35/70 39/66/70
f 34/62/71 7/31/71 39/33/71
f 41/38/72 40/36/72 12/68/72
f 41/38/73 35/37/73 40/36/73
f 35/37/74 8/34/74 40/36/74
f 42/70/75 41/38/75 12/68/75
f 42/70/76 36/71/76 41/38/76
f 36/71/77 9/4/77 41/38/77
f 38/67/78 42/70/78 12/68/78
f 38/44/79 37/43/79 42/41/79
f 37/43/80 10/39/80 42/41/80
