# Blender v2.67 (sub 0) OBJ File: 'robot.blend'
# www.blender.org
v -0.433851 -0.561311 0.254803
v -0.434960 -0.563307 0.220346
v -0.436069 -0.565304 0.185889
v -0.456945 -0.547434 0.254458
v -0.458243 -0.549324 0.220116
v -0.459541 -0.551214 0.185774
v -0.480040 -0.533558 0.254113
v -0.481527 -0.535341 0.219886
v -0.483014 -0.537124 0.185659
v -0.433851 -0.561311 -0.254803
v -0.456945 -0.547434 -0.254458
v -0.480040 -0.533558 -0.254113
v -0.434960 -0.563307 -0.220346
v -0.458243 -0.549324 -0.220116
v -0.481527 -0.535341 -0.219886
v -0.436069 -0.565304 -0.185889
v -0.459541 -0.551214 -0.185774
v -0.483014 -0.537124 -0.185659
vt 0.886186 0.094298
vt 0.893154 0.094667
vt 0.893206 0.105135
vt 0.886180 0.104799
vt 0.893258 0.115603
vt 0.900122 0.095037
vt 0.900232 0.105472
vt 0.900343 0.115907
vt 0.900363 0.115907
vt 0.900353 0.105398
vt 0.907381 0.105119
vt 0.907332 0.115595
vt 0.914409 0.104841
vt 0.900343 0.094888
vt 0.907429 0.094643
vt 0.914516 0.094398
vt 0.886174 0.115300
vt 0.914302 0.115284
vn -0.514624 -0.854834 0.066488
vn -0.514195 -0.855093 0.066487
vn -0.514614 -0.854809 0.066884
vn -0.514183 -0.855069 0.066878
vn -0.514206 -0.855116 -0.066096
vn -0.514195 -0.855092 -0.066486
vn -0.513785 -0.855369 -0.066099
vn -0.513773 -0.855346 -0.066485
vn -0.514205 -0.855116 0.066096
vn -0.513785 -0.855369 0.066099
vn -0.514194 -0.855093 0.066486
vn -0.513773 -0.855346 0.066485
vn -0.514624 -0.854834 -0.066488
vn -0.514614 -0.854809 -0.066882
vn -0.514195 -0.855092 -0.066487
vn -0.514185 -0.855068 -0.066880
s off
f 1/1/1 4/2/1 5/3/1
f 2/4/2 5/3/2 6/5/2
f 4/2/3 7/6/3 8/7/3
f 5/3/4 8/7/4 9/8/4
f 10/9/5 13/10/5 14/11/5
f 11/12/6 14/11/6 15/13/6
f 13/10/7 16/14/7 17/15/7
f 14/11/8 17/15/8 18/16/8
f 2/4/9 1/1/9 5/3/9
f 3/17/10 2/4/10 6/5/10
f 5/3/11 4/2/11 8/7/11
f 6/5/12 5/3/12 9/8/12
f 11/12/13 10/9/13 14/11/13
f 12/18/14 11/12/14 15/13/14
f 14/11/15 13/10/15 17/15/15
f 15/13/16 14/11/16 18/16/16
