# Blender v2.67 (sub 0) OBJ File: 'robot.blend'
# www.blender.org
v -0.122518 -1.199370 0.000000
v -0.114286 -1.151149 0.000000
v -0.114286 -1.199370 -0.048910
v -0.114286 -1.247592 0.000000
v -0.114286 -1.199370 0.048910
v -0.106538 -1.154491 0.045521
v -0.106538 -1.154491 -0.045521
v -0.106538 -1.244250 -0.045521
v -0.106538 -1.244250 0.045521
v 0.000000 -1.199370 -0.122518
v 0.000000 -1.151149 -0.114286
v 0.048910 -1.199370 -0.114286
v 0.000000 -1.247592 -0.114286
v -0.048910 -1.199370 -0.114286
v -0.045521 -1.154491 -0.106538
v 0.045521 -1.154491 -0.106538
v 0.045521 -1.244250 -0.106538
v -0.045521 -1.244250 -0.106538
v 0.122518 -1.199370 0.000000
v 0.114286 -1.151149 0.000000
v 0.114286 -1.199370 0.048910
v 0.114286 -1.247592 0.000000
v 0.114286 -1.199370 -0.048910
v 0.106538 -1.154491 -0.045521
v 0.106538 -1.154491 0.045521
v 0.106538 -1.244250 0.045521
v 0.106538 -1.244250 -0.045521
v 0.000000 -1.199370 0.122518
v 0.000000 -1.151149 0.114286
v -0.048910 -1.199370 0.114286
v 0.000000 -1.247592 0.114286
v 0.048910 -1.199370 0.114286
v 0.045521 -1.154491 0.106538
v -0.045521 -1.154491 0.106538
v -0.045521 -1.244250 0.106538
v 0.045521 -1.244250 0.106538
v 0.000000 -1.320163 0.000000
v -0.048910 -1.312046 0.000000
v 0.000000 -1.312046 -0.048910
v 0.048910 -1.312046 0.000000
v 0.000000 -1.312046 0.048910
v -0.045521 -1.304407 0.045521
v -0.045521 -1.304407 -0.045521
v 0.045521 -1.304407 -0.045521
v 0.045521 -1.304407 0.045521
v 0.000000 -1.078577 0.000000
v 0.048910 -1.086694 0.000000
v 0.000000 -1.086694 -0.048910
v -0.048910 -1.086694 0.000000
v 0.000000 -1.086694 0.048910
v 0.045521 -1.094333 0.045521
v 0.045521 -1.094333 -0.045521
v -0.045521 -1.094333 -0.045521
v -0.045521 -1.094333 0.045521
v -0.083535 -1.117011 0.042131
v -0.089709 -1.110924 0.000000
v -0.083535 -1.117011 -0.042131
v -0.083535 -1.157833 -0.083535
v -0.089709 -1.199370 -0.089709
v -0.083535 -1.240908 -0.083535
v -0.083535 -1.281729 -0.042131
v -0.089709 -1.287816 0.000000
v -0.083535 -1.281729 0.042131
v -0.083535 -1.240908 0.083535
v -0.089709 -1.199370 0.089709
v -0.083535 -1.157833 0.083535
v -0.042131 -1.117011 -0.083535
v 0.000000 -1.110924 -0.089709
v 0.042131 -1.117011 -0.083535
v 0.083535 -1.157833 -0.083535
v 0.089709 -1.199370 -0.089709
v 0.083535 -1.240908 -0.083535
v 0.042131 -1.281729 -0.083535
v 0.000000 -1.287816 -0.089709
v -0.042131 -1.281729 -0.083535
v 0.083535 -1.117011 -0.042131
v 0.089709 -1.110924 0.000000
v 0.083535 -1.117011 0.042131
v 0.083535 -1.157833 0.083535
v 0.089709 -1.199370 0.089709
v 0.083535 -1.240908 0.083535
v 0.083535 -1.281729 0.042131
v 0.089709 -1.287816 0.000000
v 0.083535 -1.281729 -0.042131
v 0.042131 -1.117011 0.083535
v 0.000000 -1.110924 0.089709
v -0.042131 -1.117011 0.083535
v -0.042131 -1.281729 0.083535
v 0.000000 -1.287816 0.089709
v 0.042131 -1.281729 0.083535
v -0.071025 -1.269395 0.071025
v -0.071025 -1.269395 -0.071025
v 0.071025 -1.269395 -0.071025
v 0.071025 -1.269395 0.071025
v -0.071025 -1.129345 0.071025
v -0.071025 -1.129345 -0.071025
v 0.071025 -1.129345 -0.071025
v 0.071025 -1.129345 0.071025
vt 0.491277 0.146216
vt 0.577142 0.173601
vt 0.466226 0.232791
vt 0.548024 0.252554
vt 0.449295 0.312441
vt 0.652734 0.203877
vt 0.620343 0.275046
vt 0.526448 0.325152
vt 0.409099 0.125741
vt 0.391627 0.208010
vt 0.344516 0.116093
vt 0.381698 0.283926
vt 0.333338 0.193304
vt 0.520015 0.066551
vt 0.441688 0.053292
vt 0.547954 0.007529
vt 0.778455 0.753222
vt 0.782753 0.694328
vt 0.861687 0.763636
vt 0.859923 0.706936
vt 0.940373 0.744461
vt 0.598085 0.097835
vt 0.000092 0.689739
vt 0.046279 0.656802
vt 0.059714 0.744551
vt 0.824510 0.528047
vt 0.799576 0.614656
vt 0.742305 0.507683
vt 0.724943 0.589976
vt 0.677708 0.498122
vt 0.715117 0.665904
vt 0.666635 0.575347
vt 0.774796 0.435190
vt 0.853141 0.448343
vt 0.806602 0.381855
vt 0.445038 0.753203
vt 0.449376 0.694312
vt 0.526537 0.706971
vt 0.528264 0.763673
vt 0.585853 0.705058
vt 0.931253 0.479522
vt 0.910412 0.555317
vt 0.999890 0.513443
vt 0.881000 0.389284
vt 0.951408 0.422886
vt 0.333169 0.073841
vt 0.287005 0.106810
vt 0.252427 0.058576
vt 0.881400 0.634308
vt 0.986044 0.585490
vt 0.953750 0.656703
vt 0.157939 0.235639
vt 0.243804 0.208254
vt 0.264747 0.284020
vt 0.186677 0.315304
vt 0.284978 0.340629
vt 0.319395 0.177978
vt 0.333338 0.250007
vt 0.666585 0.689739
vt 0.606962 0.744551
vt 0.108350 0.328564
vt 0.888180 0.371440
vt 0.804948 0.381855
vt 0.806712 0.325154
vt 0.214615 0.374326
vt 0.140228 0.381855
vt 0.726262 0.362680
vt 0.747398 0.323201
vt 0.075761 0.256114
vt 0.058289 0.173845
vt 0.132888 0.149064
vt 0.048360 0.097929
vt 0.011177 0.265762
vt 0.000000 0.188551
vt 0.008404 0.128077
vt 0.214685 0.129301
vt 0.115957 0.069415
vt 0.193110 0.056703
vt 0.842125 0.146266
vt 0.867059 0.232875
vt 0.785235 0.252527
vt 0.756223 0.173535
vt 0.712885 0.274922
vt 0.883882 0.312547
vt 0.813494 0.066562
vt 0.735382 0.097741
vt 0.785635 0.007503
vt 0.680591 0.203709
vt 0.666508 0.308014
vt 0.606848 0.362786
vt 0.924330 0.125901
vt 0.221638 0.753203
vt 0.138413 0.763673
vt 0.217301 0.694312
vt 0.891839 0.053408
vt 0.140139 0.706971
vt 0.941692 0.208194
vt 0.951518 0.284123
vt 0.988927 0.116341
vt 1.000000 0.193566
vt 0.991515 0.254030
vt 0.175431 0.528059
vt 0.200424 0.614651
vt 0.089548 0.555387
vt 0.118613 0.634359
vt 0.013936 0.585611
vt 0.146747 0.448375
vt 0.068656 0.479606
vt 0.118848 0.389334
vt 0.999959 0.689609
vt 0.225083 0.435168
vt 0.111580 0.010527
vt 0.194798 0.000000
vt 0.193241 0.381855
vt 0.273510 0.019069
vt 0.257623 0.507639
vt 0.275040 0.589921
vt 0.284917 0.665843
vt 0.322213 0.498035
vt 0.333338 0.575253
vt 0.324893 0.635722
vt 0.491245 0.528059
vt 0.519930 0.448375
vt 0.598020 0.479606
vt 0.577129 0.555387
vt 0.666635 0.513573
vt 0.547828 0.389334
vt 0.618214 0.422984
vt 0.666676 0.307828
vt 0.548063 0.634359
vt 0.466253 0.614651
vt 0.652741 0.585611
vt 0.620398 0.656802
vt 0.409053 0.507639
vt 0.391637 0.589921
vt 0.344463 0.498035
vt 0.381759 0.665842
vt 0.441594 0.435168
vt 0.444919 0.371328
vt 0.528137 0.381855
vt 0.585766 0.323279
vt 0.341742 0.253779
vt 0.473566 0.000000
vt 0.919237 0.704983
vt 0.666676 0.131848
vt 0.618316 0.041226
vt 0.080823 0.705058
vt 0.675120 0.635811
vt 0.715227 0.041105
vt 0.666745 0.131662
vt 0.860033 0.000074
vt 0.048463 0.422984
vt 0.000042 0.513573
vt 0.341783 0.635722
vt 0.473436 0.381855
vn -0.972444 0.166017 0.163679
vn -0.839315 0.512802 0.180511
vn -0.842020 0.183680 0.507211
vn -0.726359 0.489439 0.482547
vn -0.972444 0.166017 -0.163679
vn -0.842020 0.183680 -0.507211
vn -0.839315 0.512802 -0.180511
vn -0.726359 0.489439 -0.482547
vn -0.972444 -0.166017 -0.163679
vn -0.839315 -0.512802 -0.180511
vn -0.842020 -0.183680 -0.507211
vn -0.726359 -0.489439 -0.482547
vn -0.972444 -0.166017 0.163679
vn -0.842020 -0.183680 0.507211
vn -0.839315 -0.512802 0.180511
vn -0.726359 -0.489439 0.482547
vn -0.163679 0.166017 -0.972444
vn -0.180511 0.512802 -0.839315
vn -0.507211 0.183680 -0.842020
vn -0.482547 0.489439 -0.726359
vn 0.177287 0.165621 -0.970123
vn 0.520673 0.183286 -0.833850
vn 0.196483 0.511204 -0.836699
vn 0.513226 0.482176 -0.710004
vn 0.163277 -0.179807 -0.970057
vn 0.180088 -0.526308 -0.831004
vn 0.505575 -0.199910 -0.839303
vn 0.475131 -0.520276 -0.709622
vn -0.163679 -0.166017 -0.972444
vn -0.507211 -0.183680 -0.842020
vn -0.180511 -0.512802 -0.839315
vn -0.482547 -0.489439 -0.726359
vn 0.970057 0.179807 -0.163277
vn 0.831004 0.526308 -0.180088
vn 0.839303 0.199910 -0.505575
vn 0.709622 0.520276 -0.475131
vn 0.970123 0.165621 0.177287
vn 0.833850 0.183286 0.520673
vn 0.836699 0.511204 0.196483
vn 0.710004 0.482176 0.513226
vn 0.970057 -0.179807 0.163277
vn 0.831004 -0.526308 0.180088
vn 0.839303 -0.199910 0.505575
vn 0.709622 -0.520276 0.475131
vn 0.970123 -0.165621 -0.177287
vn 0.833850 -0.183286 -0.520673
vn 0.836699 -0.511204 -0.196483
vn 0.710004 -0.482176 -0.513226
vn 0.163277 0.179807 0.970057
vn 0.180088 0.526308 0.831004
vn 0.505575 0.199910 0.839303
vn 0.475131 0.520276 0.709622
vn -0.163679 0.166017 0.972444
vn -0.507211 0.183680 0.842020
vn -0.180511 0.512802 0.839315
vn -0.482547 0.489439 0.726359
vn -0.163679 -0.166017 0.972444
vn -0.180511 -0.512802 0.839315
vn -0.507211 -0.183680 0.842020
vn -0.482547 -0.489439 0.726359
vn 0.177287 -0.165621 0.970123
vn 0.520673 -0.183286 0.833850
vn 0.196483 -0.511204 0.836699
vn 0.513226 -0.482176 0.710004
vn -0.161557 -0.973550 0.161557
vn -0.502347 -0.845860 0.179357
vn -0.179357 -0.845860 0.502347
vn -0.480513 -0.733631 0.480513
vn -0.161557 -0.973550 -0.161557
vn -0.179357 -0.845860 -0.502347
vn -0.502347 -0.845860 -0.179357
vn -0.480513 -0.733631 -0.480513
vn 0.174999 -0.971286 -0.161181
vn 0.515779 -0.837812 -0.179007
vn 0.195234 -0.843257 -0.500801
vn 0.511185 -0.717282 -0.473495
vn 0.161181 -0.971286 0.174999
vn 0.179007 -0.837812 0.515779
vn 0.500801 -0.843257 0.195234
vn 0.473495 -0.717282 0.511185
vn 0.174999 0.971286 0.161181
vn 0.515779 0.837812 0.179007
vn 0.195234 0.843257 0.500801
vn 0.511185 0.717282 0.473495
vn 0.161181 0.971286 -0.174999
vn 0.179007 0.837812 -0.515779
vn 0.500801 0.843257 -0.195234
vn 0.473495 0.717282 -0.511185
vn -0.161557 0.973550 -0.161557
vn -0.502347 0.845860 -0.179357
vn -0.179357 0.845860 -0.502347
vn -0.480513 0.733631 -0.480513
vn -0.161557 0.973550 0.161557
vn -0.179357 0.845860 0.502347
vn -0.502347 0.845860 0.179357
vn -0.480513 0.733631 0.480513
vn -0.967362 0.180447 0.177905
vn -0.827490 0.525701 0.197228
vn -0.830238 0.200709 0.520020
vn -0.676856 0.524190 0.516808
vn -0.967362 0.180447 -0.177905
vn -0.830238 0.200709 -0.520020
vn -0.827490 0.525701 -0.197228
vn -0.676856 0.524190 -0.516808
vn -0.967362 -0.180447 -0.177905
vn -0.827490 -0.525701 -0.197228
vn -0.830238 -0.200709 -0.520020
vn -0.676856 -0.524190 -0.516808
vn -0.967362 -0.180447 0.177905
vn -0.830238 -0.200709 0.520020
vn -0.827490 -0.525701 0.197228
vn -0.676856 -0.524190 0.516808
vn -0.177905 0.180446 -0.967362
vn -0.197228 0.525701 -0.827490
vn -0.520020 0.200709 -0.830238
vn -0.516808 0.524190 -0.676856
vn 0.163277 0.179807 -0.970057
vn 0.505575 0.199910 -0.839303
vn 0.180088 0.526308 -0.831004
vn 0.475131 0.520276 -0.709622
vn 0.177287 -0.165621 -0.970123
vn 0.196483 -0.511204 -0.836699
vn 0.520673 -0.183286 -0.833850
vn 0.513226 -0.482176 -0.710004
vn -0.177905 -0.180446 -0.967362
vn -0.520020 -0.200709 -0.830238
vn -0.197228 -0.525701 -0.827490
vn -0.516808 -0.524190 -0.676856
vn 0.970123 0.165621 -0.177287
vn 0.836699 0.511204 -0.196483
vn 0.833850 0.183286 -0.520673
vn 0.710004 0.482176 -0.513226
vn 0.970057 0.179807 0.163277
vn 0.839303 0.199910 0.505575
vn 0.831004 0.526308 0.180088
vn 0.709622 0.520276 0.475131
vn 0.970123 -0.165621 0.177287
vn 0.836699 -0.511204 0.196483
vn 0.833850 -0.183286 0.520673
vn 0.710004 -0.482176 0.513226
vn 0.970057 -0.179807 -0.163277
vn 0.839303 -0.199910 -0.505575
vn 0.831004 -0.526308 -0.180088
vn 0.709622 -0.520276 -0.475131
vn 0.177287 0.165621 0.970123
vn 0.196483 0.511204 0.836699
vn 0.520673 0.183286 0.833850
vn 0.513226 0.482176 0.710004
vn -0.177905 0.180446 0.967362
vn -0.520020 0.200709 0.830238
vn -0.197228 0.525701 0.827490
vn -0.516808 0.524190 0.676856
vn -0.177905 -0.180446 0.967362
vn -0.197228 -0.525701 0.827490
vn -0.520020 -0.200709 0.830238
vn -0.516808 -0.524190 0.676856
vn 0.163277 -0.179807 0.970057
vn 0.505575 -0.199910 0.839303
vn 0.180088 -0.526308 0.831004
vn 0.475131 -0.520276 0.709622
vn -0.175635 -0.968661 0.175635
vn -0.515223 -0.834330 0.196058
vn -0.196058 -0.834330 0.515223
vn -0.515394 -0.684645 0.515394
vn -0.175635 -0.968661 -0.175635
vn -0.196058 -0.834330 -0.515223
vn -0.515223 -0.834330 -0.196058
vn -0.515394 -0.684645 -0.515394
vn 0.161181 -0.971286 -0.174999
vn 0.500801 -0.843257 -0.195234
vn 0.179007 -0.837812 -0.515779
vn 0.473495 -0.717282 -0.511185
vn 0.174999 -0.971286 0.161181
vn 0.195234 -0.843257 0.500801
vn 0.515779 -0.837812 0.179007
vn 0.511185 -0.717282 0.473495
vn 0.161181 0.971286 0.174999
vn 0.500801 0.843257 0.195234
vn 0.179007 0.837812 0.515779
vn 0.473495 0.717282 0.511185
vn 0.174999 0.971286 -0.161181
vn 0.195234 0.843257 -0.500801
vn 0.515779 0.837812 -0.179007
vn 0.511185 0.717282 -0.473495
vn -0.175635 0.968661 -0.175635
vn -0.515223 0.834330 -0.196058
vn -0.196058 0.834330 -0.515223
vn -0.515394 0.684645 -0.515394
vn -0.175635 0.968661 0.175635
vn -0.196058 0.834330 0.515223
vn -0.515223 0.834330 0.196058
vn -0.515394 0.684645 0.515394
s off
f 1/1/1 5/2/1 2/3/1
f 2/3/2 6/4/2 56/5/2
f 5/2/3 65/6/3 6/4/3
f 6/4/4 66/7/4 55/8/4
f 1/1/5 2/3/5 3/9/5
f 3/9/6 7/10/6 59/11/6
f 2/3/7 56/5/7 7/10/7
f 7/10/8 57/12/8 58/13/8
f 1/1/9 3/9/9 4/14/9
f 4/14/10 8/15/10 62/16/10
f 3/17/11 59/18/11 8/19/11
f 8/19/12 60/20/12 61/21/12
f 1/1/13 4/14/13 5/2/13
f 5/2/14 9/22/14 65/6/14
f 4/14/15 62/16/15 9/22/15
f 9/23/16 63/24/16 64/25/16
f 10/26/17 14/27/17 11/28/17
f 11/28/18 15/29/18 68/30/18
f 14/27/19 59/18/19 15/29/19
f 15/29/20 58/31/20 67/32/20
f 10/26/21 11/28/21 16/33/21
f 12/34/22 16/33/22 70/35/22
f 11/36/23 68/37/23 69/38/23
f 16/39/24 69/38/24 97/40/24
f 10/26/25 12/34/25 17/41/25
f 13/42/26 17/41/26 73/43/26
f 12/34/27 71/44/27 72/45/27
f 17/46/28 72/47/28 93/48/28
f 10/26/29 13/42/29 14/27/29
f 14/27/30 18/49/30 59/18/30
f 13/42/31 74/50/31 18/49/31
f 18/49/32 75/51/32 60/20/32
f 19/52/33 23/53/33 24/54/33
f 20/55/34 24/54/34 76/56/34
f 23/53/35 71/57/35 70/58/35
f 24/59/36 70/60/36 97/40/36
f 19/52/37 20/55/37 25/61/37
f 21/62/38 25/63/38 79/64/38
f 20/55/39 77/65/39 78/66/39
f 25/63/40 78/67/40 98/68/40
f 19/52/41 21/69/41 26/70/41
f 22/71/42 26/70/42 82/72/42
f 21/69/43 80/73/43 81/74/43
f 26/70/44 81/74/44 94/75/44
f 19/52/45 22/71/45 27/76/45
f 23/53/46 27/76/46 72/47/46
f 22/71/47 83/77/47 84/78/47
f 27/76/48 84/78/48 93/48/48
f 28/79/49 32/80/49 33/81/49
f 29/82/50 33/81/50 85/83/50
f 32/80/51 80/84/51 79/64/51
f 33/81/52 79/64/52 98/68/52
f 28/79/53 29/82/53 30/85/53
f 30/85/54 34/86/54 65/87/54
f 29/82/55 86/88/55 34/86/55
f 34/89/56 87/90/56 66/7/56
f 28/79/57 30/85/57 31/91/57
f 31/92/58 35/93/58 89/94/58
f 30/85/59 65/87/59 35/95/59
f 35/93/60 64/25/60 88/96/60
f 28/79/61 31/91/61 36/97/61
f 32/80/62 36/97/62 81/98/62
f 31/91/63 89/99/63 90/100/63
f 36/97/64 90/100/64 94/101/64
f 37/102/65 41/103/65 38/104/65
f 38/104/66 42/105/66 62/106/66
f 41/103/67 89/94/67 42/105/67
f 42/105/68 88/96/68 63/24/68
f 37/102/69 38/104/69 39/107/69
f 39/107/70 43/108/70 74/109/70
f 38/104/71 62/106/71 43/108/71
f 43/110/72 61/21/72 75/51/72
f 37/102/73 39/107/73 44/111/73
f 40/112/74 44/113/74 84/78/74
f 39/107/75 74/109/75 73/114/75
f 44/113/76 73/115/76 93/48/76
f 37/102/77 40/116/77 45/117/77
f 41/103/78 45/117/78 90/118/78
f 40/116/79 83/119/79 82/120/79
f 45/117/80 82/120/80 94/121/80
f 46/122/81 50/123/81 51/124/81
f 47/125/82 51/124/82 78/126/82
f 50/123/83 86/127/83 85/128/83
f 51/129/84 85/83/84 98/68/84
f 46/122/85 47/125/85 52/130/85
f 48/131/86 52/130/86 69/38/86
f 47/125/87 77/132/87 76/133/87
f 52/130/88 76/133/88 97/40/88
f 46/122/89 48/131/89 49/134/89
f 49/134/90 53/135/90 56/136/90
f 48/131/91 68/37/91 53/135/91
f 53/135/92 67/137/92 57/120/92
f 46/122/93 49/134/93 50/123/93
f 50/123/94 54/138/94 86/127/94
f 49/139/95 56/5/95 54/140/95
f 54/140/96 55/8/96 87/90/96
f 5/2/97 6/4/97 2/3/97
f 6/4/98 55/8/98 56/5/98
f 65/6/99 66/7/99 6/4/99
f 66/7/100 95/141/100 55/8/100
f 2/3/101 7/10/101 3/9/101
f 7/10/102 58/13/102 59/11/102
f 56/5/103 57/12/103 7/10/103
f 57/12/104 96/142/104 58/13/104
f 3/9/105 8/15/105 4/14/105
f 8/15/106 61/143/106 62/16/106
f 59/18/107 60/20/107 8/19/107
f 60/20/108 92/144/108 61/21/108
f 4/14/109 9/22/109 5/2/109
f 9/22/110 64/145/110 65/6/110
f 62/16/111 63/146/111 9/22/111
f 63/24/112 91/147/112 64/25/112
f 14/27/113 15/29/113 11/28/113
f 15/29/114 67/32/114 68/30/114
f 59/18/115 58/31/115 15/29/115
f 58/31/116 96/148/116 67/32/116
f 12/34/117 10/26/117 16/33/117
f 71/44/118 12/34/118 70/35/118
f 16/39/119 11/36/119 69/38/119
f 70/60/120 16/39/120 97/40/120
f 13/42/121 10/26/121 17/41/121
f 74/50/122 13/42/122 73/43/122
f 17/41/123 12/34/123 72/45/123
f 73/115/124 17/46/124 93/48/124
f 13/42/125 18/49/125 14/27/125
f 18/49/126 60/20/126 59/18/126
f 74/50/127 75/51/127 18/49/127
f 75/51/128 92/144/128 60/20/128
f 20/55/129 19/52/129 24/54/129
f 77/65/130 20/55/130 76/56/130
f 24/54/131 23/53/131 70/58/131
f 76/133/132 24/59/132 97/40/132
f 21/69/133 19/52/133 25/61/133
f 80/84/134 21/62/134 79/64/134
f 25/61/135 20/55/135 78/66/135
f 79/64/136 25/63/136 98/68/136
f 22/71/137 19/52/137 26/70/137
f 83/77/138 22/71/138 82/72/138
f 26/70/139 21/69/139 81/74/139
f 82/72/140 26/70/140 94/75/140
f 23/53/141 19/52/141 27/76/141
f 71/57/142 23/53/142 72/47/142
f 27/76/143 22/71/143 84/78/143
f 72/47/144 27/76/144 93/48/144
f 29/82/145 28/79/145 33/81/145
f 86/88/146 29/82/146 85/83/146
f 33/81/147 32/80/147 79/64/147
f 85/83/148 33/81/148 98/68/148
f 29/82/149 34/86/149 30/85/149
f 34/86/150 66/149/150 65/87/150
f 86/88/151 87/150/151 34/86/151
f 87/90/152 95/141/152 66/7/152
f 30/85/153 35/95/153 31/91/153
f 35/93/154 88/96/154 89/94/154
f 65/87/155 64/151/155 35/95/155
f 64/25/156 91/147/156 88/96/156
f 32/80/157 28/79/157 36/97/157
f 80/84/158 32/80/158 81/98/158
f 36/97/159 31/91/159 90/100/159
f 81/98/160 36/97/160 94/101/160
f 41/103/161 42/105/161 38/104/161
f 42/105/162 63/24/162 62/106/162
f 89/94/163 88/96/163 42/105/163
f 88/96/164 91/147/164 63/24/164
f 38/104/165 43/108/165 39/107/165
f 43/108/166 75/152/166 74/109/166
f 62/106/167 61/153/167 43/108/167
f 61/21/168 92/144/168 75/51/168
f 40/116/169 37/102/169 44/111/169
f 83/77/170 40/112/170 84/78/170
f 44/111/171 39/107/171 73/114/171
f 84/78/172 44/113/172 93/48/172
f 41/103/173 37/102/173 45/117/173
f 89/94/174 41/103/174 90/118/174
f 45/117/175 40/116/175 82/120/175
f 90/118/176 45/117/176 94/121/176
f 47/125/177 46/122/177 51/124/177
f 77/132/178 47/125/178 78/126/178
f 51/124/179 50/123/179 85/128/179
f 78/67/180 51/129/180 98/68/180
f 48/131/181 46/122/181 52/130/181
f 68/37/182 48/131/182 69/38/182
f 52/130/183 47/125/183 76/133/183
f 69/38/184 52/130/184 97/40/184
f 48/131/185 53/135/185 49/134/185
f 53/135/186 57/120/186 56/136/186
f 68/37/187 67/137/187 53/135/187
f 67/137/188 96/154/188 57/120/188
f 49/134/189 54/138/189 50/123/189
f 54/138/190 87/155/190 86/127/190
f 56/5/191 55/8/191 54/140/191
f 55/8/192 95/141/192 87/90/192
